<?xml version="1.0" standalone="no"?>
<!-- Generator: Adobe Fireworks 10, Export SVG Extension by Aaron Beall (http://fireworks.abeall.com) . Version: 0.6.1  -->
<!DOCTYPE svg PUBLIC "-//W3C//DTD SVG 1.1//EN" "http://www.w3.org/Graphics/SVG/1.1/DTD/svg11.dtd">
<svg id="Untitled-Page%201" viewBox="0 0 212 212" style="background-color:#ffffff00" version="1.1"
	xmlns="http://www.w3.org/2000/svg" xmlns:xlink="http://www.w3.org/1999/xlink" xml:space="preserve"
	x="0px" y="0px" width="212px" height="212px"
>
	<g>
		<path d="M 33.596 165.4704 L 22.8579 117.8426 L 14 117.8426 L 28.8328 178.5889 L 37.5236 178.5889 L 49.2227 136.1417 L 60.4204 178.5889 L 69.1112 178.5889 L 83.944 117.8426 L 75.0861 117.8426 L 64.348 165.4704 L 51.8968 117.8426 L 46.0472 117.8426 L 33.596 165.4704 L 33.596 165.4704 Z" fill="#4caf50"/>
		<path d="M 175.6881 179.0663 C 180.3956 179.0663 184.4067 178.384 187.7354 177.0052 C 191.0641 175.6266 193.6128 173.6212 195.3677 170.9891 C 197.1226 168.3571 198 165.1819 198 161.4775 L 198 161.3939 C 198 157.411 197.1643 154.2776 195.507 151.9798 C 193.8496 149.6819 191.7883 148.0108 189.3232 146.9803 C 186.858 145.9497 183.7939 145.0584 180.1171 144.3064 C 179.9778 144.2786 179.8246 144.2507 179.6575 144.2229 C 179.4903 144.195 179.3371 144.1671 179.1978 144.1393 C 179.0864 144.1115 178.975 144.0975 178.8775 144.0836 C 178.78 144.0697 178.6825 144.0418 178.5711 144.014 C 175.4235 143.4012 172.9583 142.8163 171.1895 142.2453 C 169.4207 141.6743 167.9444 140.7831 166.7606 139.5854 C 165.5767 138.3878 164.9918 136.7445 164.9918 134.6555 L 164.9918 134.6138 C 164.9918 131.5778 166.1338 129.2382 168.4319 127.581 C 170.7299 125.9238 173.9611 125.0882 178.1115 125.0882 C 180.4235 125.0882 182.7215 125.5199 185.0196 126.3694 C 187.3176 127.2189 189.6296 128.4862 191.9415 130.1852 L 196.7883 123.417 C 194.8106 121.9966 192.7911 120.8268 190.7438 119.8937 C 188.6964 118.9606 186.6212 118.2504 184.5182 117.7769 C 182.4151 117.3034 180.2842 117.0667 178.1115 117.0667 C 173.5711 117.0667 169.6853 117.763 166.4542 119.1556 C 163.223 120.5482 160.7578 122.5815 159.0726 125.2414 C 157.3873 127.9013 156.5517 131.1043 156.5517 134.8644 L 156.5517 134.9062 C 156.5517 139.1955 157.457 142.5099 159.2676 144.8356 C 161.0781 147.1613 163.2508 148.7628 165.7996 149.6402 C 168.3483 150.5175 171.6631 151.2974 175.7299 151.9937 L 176.3566 152.119 C 176.4402 152.1469 176.5238 152.1608 176.6213 152.1608 C 176.7188 152.1608 176.8162 152.1747 176.8998 152.2026 C 179.6575 152.7039 181.8998 153.261 183.6407 153.8598 C 185.3817 154.4587 186.8023 155.3778 187.9025 156.6172 C 189.0028 157.8567 189.5599 159.5278 189.5599 161.6446 L 189.5599 161.6864 C 189.5599 164.6666 188.3482 166.9783 185.9248 168.6077 C 183.5014 170.2371 180.0892 171.0448 175.6881 171.0448 C 172.4291 171.0448 169.4068 170.5435 166.6213 169.5408 C 163.8358 168.5381 161.287 167.0341 158.9751 165.0287 L 153.6687 171.5462 C 155.6464 173.2173 157.7634 174.61 160.0336 175.724 C 162.3038 176.8381 164.755 177.6737 167.3734 178.2308 C 169.9917 178.7878 171.3009 179.0663 171.3009 179.0663 L 171.3009 179.0663 L 171.3009 179.0663 L 171.3009 179.0663 C 171.3009 179.0663 172.7633 179.0663 175.6881 179.0663 L 175.6881 179.0663 Z" fill="#4caf50"/>
	</g>
	<g>
		<path d="M 41.9844 101.7031 C 46.7344 101.7031 50.9219 100.6719 54.5469 98.5938 C 58.1719 96.5156 60.9688 93.5781 62.9531 89.7813 C 64.9375 85.9844 65.9375 81.5781 65.9375 76.5781 L 65.9375 57.2656 C 65.9375 52.2656 64.9375 47.875 62.9531 44.0781 C 60.9688 40.2813 58.1719 37.3438 54.5469 35.2656 C 50.9219 33.1875 46.7344 32.1406 41.9844 32.1406 C 37.2344 32.1406 33.0469 33.1875 29.4219 35.2656 C 25.7969 37.3438 22.9844 40.2813 21 44.0781 C 19.0156 47.875 18.0313 52.2656 18.0313 57.2656 L 18.0313 76.5781 C 18.0313 81.5781 19.0156 85.9844 21 89.7813 C 22.9844 93.5781 25.7969 96.5156 29.4219 98.5938 C 33.0469 100.6719 37.2344 101.7031 41.9844 101.7031 L 41.9844 101.7031 ZM 41.9844 92.2813 C 39.1719 92.2813 36.6875 91.6563 34.5469 90.3906 C 32.4063 89.125 30.75 87.3281 29.5781 85 C 28.4063 82.6719 27.8281 79.9688 27.8281 76.9063 L 27.8281 56.9375 C 27.8281 53.875 28.4063 51.1875 29.5781 48.8594 C 30.75 46.5313 32.4063 44.7344 34.5469 43.4688 C 36.6875 42.2031 39.1719 41.5625 41.9844 41.5625 C 44.7969 41.5625 47.2656 42.2031 49.4063 43.4688 C 51.5469 44.7344 53.2031 46.5313 54.375 48.8594 C 55.5469 51.1875 56.1406 53.875 56.1406 56.9375 L 56.1406 76.9063 C 56.1406 79.9688 55.5469 82.6719 54.375 85 C 53.2031 87.3281 51.5469 89.125 49.4063 90.3906 C 47.2656 91.6563 44.7969 92.2813 41.9844 92.2813 L 41.9844 92.2813 Z" fill="#4caf50"/>
		<path d="M 107.4063 64.2969 L 107.4063 73.4375 L 121.2344 73.4375 L 121.2344 76.3906 C 121.2344 79.7031 120.6563 82.5625 119.5 84.9688 C 118.3438 87.375 116.7031 89.2188 114.5781 90.4844 C 112.4531 91.75 109.9844 92.375 107.1719 92.375 C 104.3281 92.375 101.8125 91.7656 99.6406 90.5469 C 97.4688 89.3281 95.7969 87.625 94.6094 85.4219 C 93.4219 83.2188 92.8281 80.6406 92.8281 77.7031 L 92.8281 57.5938 C 92.8281 54.375 93.4063 51.5625 94.5625 49.1406 C 95.7188 46.7188 97.3594 44.8281 99.4844 43.4844 C 101.6094 42.1406 104.0781 41.4688 106.8906 41.4688 C 108.8281 41.4688 110.7031 41.9063 112.5156 42.7656 C 114.3281 43.625 115.9063 44.875 117.25 46.5156 C 118.5938 48.1563 119.5469 50.1094 120.1094 52.3906 L 130.4688 52.3906 C 129.6875 48.3594 128.1875 44.8125 125.9688 41.75 C 123.75 38.6875 120.9844 36.3281 117.6875 34.6563 C 114.3906 32.9844 110.7969 32.1406 106.8906 32.1406 C 102.1406 32.1406 97.9531 33.2031 94.3438 35.3125 C 90.7344 37.4219 87.9531 40.3906 85.9844 44.2344 C 84.0156 48.0781 83.0313 52.5313 83.0313 57.5938 L 83.0313 77.7031 C 83.0313 82.4844 84.0313 86.6875 86.0313 90.3125 C 88.0313 93.9375 90.8438 96.75 94.4844 98.7344 C 98.125 100.7188 102.3594 101.7031 107.1719 101.7031 C 111.9219 101.7031 116.0938 100.6563 119.7031 98.5469 C 123.3125 96.4375 126.1094 93.4531 128.0781 89.5938 C 130.0469 85.7344 131.0313 81.2656 131.0313 76.2031 L 131.0313 64.2969 L 107.4063 64.2969 L 107.4063 64.2969 Z" fill="#4caf50"/>
		<path d="M 171.75 101.7031 C 175.625 101.7031 179.2031 100.875 182.4844 99.2031 C 185.7656 97.5313 188.5156 95.1563 190.7344 92.0938 C 192.9531 89.0313 194.4531 85.4844 195.2344 81.4531 L 185.4375 81.4531 C 184.8438 83.7344 183.8438 85.7031 182.4531 87.3594 C 181.0625 89.0156 179.4375 90.2656 177.5781 91.1094 C 175.7188 91.9531 173.7813 92.375 171.75 92.375 C 168.9688 92.375 166.5313 91.7188 164.4375 90.3906 C 162.3438 89.0625 160.7188 87.1719 159.5625 84.7344 C 158.4063 82.2969 157.8281 79.4844 157.8281 76.2969 L 157.8281 57.5938 C 157.8281 54.375 158.4063 51.5625 159.5625 49.1406 C 160.7188 46.7188 162.3438 44.8281 164.4375 43.4844 C 166.5313 42.1406 168.9688 41.4688 171.75 41.4688 C 173.75 41.4688 175.6875 41.9219 177.5625 42.8281 C 179.4375 43.7344 181.0625 45.0313 182.4531 46.7031 C 183.8438 48.375 184.8438 50.2656 185.4375 52.3906 L 195.2344 52.3906 C 194.4531 48.3594 192.9531 44.8125 190.75 41.75 C 188.5469 38.6875 185.8125 36.3281 182.5313 34.6563 C 179.25 32.9844 175.6563 32.1406 171.75 32.1406 C 167.0313 32.1406 162.875 33.2031 159.2969 35.3125 C 155.7188 37.4219 152.9531 40.3906 150.9844 44.2344 C 149.0156 48.0781 148.0313 52.5313 148.0313 57.5938 L 148.0313 76.2969 C 148.0313 81.3594 149.0156 85.8125 150.9844 89.6563 C 152.9531 93.5 155.7188 96.4688 159.2969 98.5625 C 162.875 100.6563 164.6719 101.7031 164.6719 101.7031 L 164.6719 101.7031 L 164.6719 101.7031 L 164.6719 101.7031 C 164.6719 101.7031 167.0313 101.7031 171.75 101.7031 L 171.75 101.7031 Z" fill="#4caf50"/>
	</g>
	<text x="84.7692" y="202" width="69.6805" fill="#4cad50" style="font-weight: bold; font-size: 75px; font-family: Bahnschrift; text-align: center; color: #4cad50; "><tspan><![CDATA[M]]></tspan></text>
</svg>