<?xml version="1.0" standalone="no"?>
<!-- Generator: Adobe Fireworks 10, Export SVG Extension by Aaron Beall (http://fireworks.abeall.com) . Version: 0.6.1  -->
<!DOCTYPE svg PUBLIC "-//W3C//DTD SVG 1.1//EN" "http://www.w3.org/Graphics/SVG/1.1/DTD/svg11.dtd">
<svg id="Untitled-Page%201" viewBox="0 0 212 212" style="background-color:#ffffff00" version="1.1"
	xmlns="http://www.w3.org/2000/svg" xmlns:xlink="http://www.w3.org/1999/xlink" xml:space="preserve"
	x="0px" y="0px" width="212px" height="212px"
>
	<g>
		<path d="M 22.9985 159.9524 L 13.1358 116.2126 L 5 116.2126 L 18.6236 172 L 26.6059 172 L 37.3513 133.0179 L 47.6362 172 L 55.6185 172 L 69.2421 116.2126 L 61.1063 116.2126 L 51.2435 159.9524 L 39.8074 116.2126 L 34.4347 116.2126 L 22.9985 159.9524 L 22.9985 159.9524 Z" fill="#4caf50"/>
		<path d="M 140.507 170.9385 C 144.8307 170.9385 148.5149 170.3118 151.5722 169.0456 C 154.6295 167.7795 156.9705 165.9378 158.5823 163.5206 C 160.1941 161.1034 161 158.1874 161 154.7854 L 161 154.7087 C 161 151.0509 160.2325 148.1733 158.7102 146.0631 C 157.1879 143.9528 155.2947 142.4181 153.0305 141.4717 C 150.7663 140.5253 147.952 139.7067 144.5749 139.0161 C 144.447 138.9905 144.3063 138.9649 144.1528 138.9394 C 143.9993 138.9138 143.8586 138.8882 143.7306 138.8626 C 143.6283 138.8371 143.526 138.8242 143.4364 138.8115 C 143.3469 138.7987 143.2573 138.7731 143.155 138.7475 C 140.264 138.1848 137.9998 137.6476 136.3752 137.1233 C 134.7505 136.5989 133.3946 135.7804 132.3073 134.6805 C 131.2199 133.5806 130.6827 132.0714 130.6827 130.153 L 130.6827 130.1147 C 130.6827 127.3266 131.7316 125.1779 133.8423 123.656 C 135.953 122.1341 138.9208 121.3667 142.7328 121.3667 C 144.8563 121.3667 146.967 121.7632 149.0777 122.5433 C 151.1884 123.3235 153.3119 124.4873 155.4354 126.0476 L 159.8871 119.832 C 158.0706 118.5275 156.2157 117.4531 154.3353 116.5963 C 152.4549 115.7394 150.5488 115.0871 148.6172 114.6523 C 146.6856 114.2174 144.7284 114 142.7328 114 C 138.5626 114 134.9936 114.6395 132.0258 115.9184 C 129.0581 117.1974 126.7938 119.0646 125.246 121.5074 C 123.6982 123.9502 122.9306 126.8917 122.9306 130.3449 L 122.9306 130.3832 C 122.9306 134.3224 123.7621 137.3663 125.4251 139.5021 C 127.0881 141.6379 129.0836 143.1087 131.4246 143.9144 C 133.7656 144.7202 136.8101 145.4364 140.5454 146.0759 L 141.121 146.191 C 141.1978 146.2165 141.2745 146.2293 141.3641 146.2293 C 141.4536 146.2293 141.5432 146.2421 141.6199 146.2677 C 144.1528 146.7281 146.2123 147.2397 147.8113 147.7896 C 149.4103 148.3396 150.7151 149.1837 151.7257 150.3219 C 152.7363 151.4602 153.248 152.9949 153.248 154.9389 L 153.248 154.9773 C 153.248 157.7142 152.1351 159.8373 149.9092 161.3336 C 147.6834 162.83 144.5493 163.5718 140.507 163.5718 C 137.5137 163.5718 134.7378 163.1114 132.1793 162.1905 C 129.6209 161.2697 127.28 159.8884 125.1565 158.0468 L 120.2827 164.0322 C 122.0991 165.5669 124.0435 166.8459 126.1287 167.869 C 128.2138 168.8922 130.4652 169.6595 132.8701 170.1711 C 135.275 170.6827 136.4775 170.9385 136.4775 170.9385 L 136.4775 170.9385 L 136.4775 170.9385 L 136.4775 170.9385 C 136.4775 170.9385 137.8207 170.9385 140.507 170.9385 L 140.507 170.9385 Z" fill="#4caf50"/>
	</g>
	<path d="M 79.9875 115.5219 L 115.1914 115.5219 L 115.1914 122.8886 L 88.1744 122.8886 L 88.1744 140.0776 L 111.0979 140.0776 L 111.0979 148.2628 L 88.1744 148.2628 C 88.1744 148.2628 88.4814 171.1815 88.1744 171.1815 C 87.8674 171.1815 79.9875 171.1815 79.9875 171.1815 L 79.9875 115.5219 Z" fill="#4caf50"/>
	<g>
		<path d="M 41.9844 101.7031 C 46.7344 101.7031 50.9219 100.6719 54.5469 98.5938 C 58.1719 96.5156 60.9688 93.5781 62.9531 89.7813 C 64.9375 85.9844 65.9375 81.5781 65.9375 76.5781 L 65.9375 57.2656 C 65.9375 52.2656 64.9375 47.875 62.9531 44.0781 C 60.9688 40.2813 58.1719 37.3438 54.5469 35.2656 C 50.9219 33.1875 46.7344 32.1406 41.9844 32.1406 C 37.2344 32.1406 33.0469 33.1875 29.4219 35.2656 C 25.7969 37.3438 22.9844 40.2813 21 44.0781 C 19.0156 47.875 18.0313 52.2656 18.0313 57.2656 L 18.0313 76.5781 C 18.0313 81.5781 19.0156 85.9844 21 89.7813 C 22.9844 93.5781 25.7969 96.5156 29.4219 98.5938 C 33.0469 100.6719 37.2344 101.7031 41.9844 101.7031 L 41.9844 101.7031 ZM 41.9844 92.2813 C 39.1719 92.2813 36.6875 91.6563 34.5469 90.3906 C 32.4063 89.125 30.75 87.3281 29.5781 85 C 28.4063 82.6719 27.8281 79.9688 27.8281 76.9063 L 27.8281 56.9375 C 27.8281 53.875 28.4063 51.1875 29.5781 48.8594 C 30.75 46.5313 32.4063 44.7344 34.5469 43.4688 C 36.6875 42.2031 39.1719 41.5625 41.9844 41.5625 C 44.7969 41.5625 47.2656 42.2031 49.4063 43.4688 C 51.5469 44.7344 53.2031 46.5313 54.375 48.8594 C 55.5469 51.1875 56.1406 53.875 56.1406 56.9375 L 56.1406 76.9063 C 56.1406 79.9688 55.5469 82.6719 54.375 85 C 53.2031 87.3281 51.5469 89.125 49.4063 90.3906 C 47.2656 91.6563 44.7969 92.2813 41.9844 92.2813 L 41.9844 92.2813 Z" fill="#4caf50"/>
		<path d="M 107.4063 64.2969 L 107.4063 73.4375 L 121.2344 73.4375 L 121.2344 76.3906 C 121.2344 79.7031 120.6563 82.5625 119.5 84.9688 C 118.3438 87.375 116.7031 89.2188 114.5781 90.4844 C 112.4531 91.75 109.9844 92.375 107.1719 92.375 C 104.3281 92.375 101.8125 91.7656 99.6406 90.5469 C 97.4688 89.3281 95.7969 87.625 94.6094 85.4219 C 93.4219 83.2188 92.8281 80.6406 92.8281 77.7031 L 92.8281 57.5938 C 92.8281 54.375 93.4063 51.5625 94.5625 49.1406 C 95.7188 46.7188 97.3594 44.8281 99.4844 43.4844 C 101.6094 42.1406 104.0781 41.4688 106.8906 41.4688 C 108.8281 41.4688 110.7031 41.9063 112.5156 42.7656 C 114.3281 43.625 115.9063 44.875 117.25 46.5156 C 118.5938 48.1563 119.5469 50.1094 120.1094 52.3906 L 130.4688 52.3906 C 129.6875 48.3594 128.1875 44.8125 125.9688 41.75 C 123.75 38.6875 120.9844 36.3281 117.6875 34.6563 C 114.3906 32.9844 110.7969 32.1406 106.8906 32.1406 C 102.1406 32.1406 97.9531 33.2031 94.3438 35.3125 C 90.7344 37.4219 87.9531 40.3906 85.9844 44.2344 C 84.0156 48.0781 83.0313 52.5313 83.0313 57.5938 L 83.0313 77.7031 C 83.0313 82.4844 84.0313 86.6875 86.0313 90.3125 C 88.0313 93.9375 90.8438 96.75 94.4844 98.7344 C 98.125 100.7188 102.3594 101.7031 107.1719 101.7031 C 111.9219 101.7031 116.0938 100.6563 119.7031 98.5469 C 123.3125 96.4375 126.1094 93.4531 128.0781 89.5938 C 130.0469 85.7344 131.0313 81.2656 131.0313 76.2031 L 131.0313 64.2969 L 107.4063 64.2969 L 107.4063 64.2969 Z" fill="#4caf50"/>
		<path d="M 171.75 101.7031 C 175.625 101.7031 179.2031 100.875 182.4844 99.2031 C 185.7656 97.5313 188.5156 95.1563 190.7344 92.0938 C 192.9531 89.0313 194.4531 85.4844 195.2344 81.4531 L 185.4375 81.4531 C 184.8438 83.7344 183.8438 85.7031 182.4531 87.3594 C 181.0625 89.0156 179.4375 90.2656 177.5781 91.1094 C 175.7188 91.9531 173.7813 92.375 171.75 92.375 C 168.9688 92.375 166.5313 91.7188 164.4375 90.3906 C 162.3438 89.0625 160.7188 87.1719 159.5625 84.7344 C 158.4063 82.2969 157.8281 79.4844 157.8281 76.2969 L 157.8281 57.5938 C 157.8281 54.375 158.4063 51.5625 159.5625 49.1406 C 160.7188 46.7188 162.3438 44.8281 164.4375 43.4844 C 166.5313 42.1406 168.9688 41.4688 171.75 41.4688 C 173.75 41.4688 175.6875 41.9219 177.5625 42.8281 C 179.4375 43.7344 181.0625 45.0313 182.4531 46.7031 C 183.8438 48.375 184.8438 50.2656 185.4375 52.3906 L 195.2344 52.3906 C 194.4531 48.3594 192.9531 44.8125 190.75 41.75 C 188.5469 38.6875 185.8125 36.3281 182.5313 34.6563 C 179.25 32.9844 175.6563 32.1406 171.75 32.1406 C 167.0313 32.1406 162.875 33.2031 159.2969 35.3125 C 155.7188 37.4219 152.9531 40.3906 150.9844 44.2344 C 149.0156 48.0781 148.0313 52.5313 148.0313 57.5938 L 148.0313 76.2969 C 148.0313 81.3594 149.0156 85.8125 150.9844 89.6563 C 152.9531 93.5 155.7188 96.4688 159.2969 98.5625 C 162.875 100.6563 164.6719 101.7031 164.6719 101.7031 L 164.6719 101.7031 L 164.6719 101.7031 L 164.6719 101.7031 C 164.6719 101.7031 167.0313 101.7031 171.75 101.7031 L 171.75 101.7031 Z" fill="#4caf50"/>
	</g>
	<g>
		<path d="M 185.3125 169 L 192.7969 169 L 192.7969 120.1094 L 185.3125 120.1094 L 185.3125 169 L 185.3125 169 ZM 170.2656 122.8594 L 207.8438 122.8594 L 207.8438 115.75 L 170.2656 115.75 L 170.2656 122.8594 L 170.2656 122.8594 Z" fill="#4cae50"/>
	</g>
	<path d="M 165 138 L 178 138 L 178 144 L 165 144 L 165 138 Z" fill="#4cae50"/>
</svg>