<?xml version="1.0" standalone="no"?>
<!-- Generator: Adobe Fireworks 10, Export SVG Extension by Aaron Beall (http://fireworks.abeall.com) . Version: 0.6.1  -->
<!DOCTYPE svg PUBLIC "-//W3C//DTD SVG 1.1//EN" "http://www.w3.org/Graphics/SVG/1.1/DTD/svg11.dtd">
<svg id="createVector.fw-Page%201" viewBox="0 0 200 200" style="background-color:#ffffff00" version="1.1"
	xmlns="http://www.w3.org/2000/svg" xmlns:xlink="http://www.w3.org/1999/xlink" xml:space="preserve"
	x="0px" y="0px" width="200px" height="200px"
>
	<path d="M 19.6716 124.6765 L 79.0448 43.8196 L 119.0746 83.3078 L 157.2239 80.0843 L 172.5373 154.7628 L 72.597 161.4784 L 19.6716 124.6765 ZM 10 127.0941 L 70.7164 169 L 180.8657 162.5529 L 163.1343 72.8314 L 120.6866 76.5922 L 78.7761 32 L 10 127.0941 Z" fill="#4caf50"/>
	<path d="M 71.2537 145.3608 L 112.0896 92.7098 L 139.7612 128.7059 L 187.8508 108.2902 L 190 114.7373 L 135.194 137.302 L 111.2836 105.3353 L 77.4328 147.7784 L 71.2537 145.3608 Z" fill="#4caf50"/>
	<path id="Ellipse" d="M 37.403 118.498 C 37.403 111.3767 43.1764 105.6039 50.2985 105.6039 C 57.4206 105.6039 63.194 111.3767 63.194 118.498 C 63.194 125.6194 57.4206 131.3922 50.2985 131.3922 C 43.1764 131.3922 37.403 125.6194 37.403 118.498 Z" fill="#4caf50"/>
	<path id="Ellipse2" d="M 68.5672 74.1745 C 68.5672 68.3884 73.2581 63.698 79.0448 63.698 C 84.8315 63.698 89.5224 68.3884 89.5224 74.1745 C 89.5224 79.9606 84.8315 84.651 79.0448 84.651 C 73.2581 84.651 68.5672 79.9606 68.5672 74.1745 Z" fill="#4caf50"/>
	<path id="Ellipse3" d="M 116.3881 54.0275 C 116.3881 48.3897 120.9587 43.8196 126.597 43.8196 C 132.2353 43.8196 136.806 48.3897 136.806 54.0275 C 136.806 59.6652 132.2353 64.2353 126.597 64.2353 C 120.9587 64.2353 116.3881 59.6652 116.3881 54.0275 Z" fill="#4caf50"/>
</svg>